<?xml version="1.0"?>
<svg xmlns="http://www.w3.org/2000/svg" height="512px" viewBox="-16 0 480 480" width="512px" class=""><g><path d="m424 0h-400c-13.253906 0-24 10.746094-24 24v432c0 13.253906 10.746094 24 24 24h400c13.253906 0 24-10.746094 24-24v-432c0-13.253906-10.746094-24-24-24zm-168 16h32v48l-9.601562-12.800781c-1.574219-1.914063-3.921876-3.019531-6.398438-3.019531s-4.824219 1.105468-6.398438 3.019531l-9.601562 12.800781zm64 448h-296c-4.417969 0-8-3.582031-8-8v-432c0-4.417969 3.582031-8 8-8h24v64c0 17.671875 14.328125 32 32 32s32-14.328125 32-32v-40h-16v40c0 8.835938-7.164062 16-16 16s-16-7.164062-16-16v-64h176v72c0 3.445312 2.203125 6.5 5.46875 7.589844 3.269531 1.089844 6.863281-.035156 8.929688-2.789063l17.601562-23.464843 17.601562 23.464843c1.507813 2.011719 3.878907 3.199219 6.398438 3.199219.859375-.003906 1.710938-.140625 2.527344-.40625 3.269531-1.089844 5.472656-4.148438 5.472656-7.59375v-72h24c4.417969 0 8 3.582031 8 8v432c0 4.417969-3.582031 8-8 8zm30.527344 0c.949218-2.5625 1.445312-5.269531 1.472656-8v-432c-.027344-2.730469-.523438-5.4375-1.472656-8h25.472656c4.417969 0 8 3.582031 8 8v432c0 4.417969-3.582031 8-8 8zm81.472656-8c0 4.417969-3.582031 8-8 8h-25.472656c.949218-2.5625 1.445312-5.269531 1.472656-8v-432c-.027344-2.730469-.523438-5.4375-1.472656-8h25.472656c4.417969 0 8 3.582031 8 8zm0 0" data-original="#000000" class="active-path" data-old_color="#000000" fill="#FFFFFF"/><path d="m48 176h144v16h-144zm0 0" data-original="#000000" class="active-path" data-old_color="#000000" fill="#FFFFFF"/><path d="m48 144h32v16h-32zm0 0" data-original="#000000" class="active-path" data-old_color="#000000" fill="#FFFFFF"/><path d="m96 144h96v16h-96zm0 0" data-original="#000000" class="active-path" data-old_color="#000000" fill="#FFFFFF"/><path d="m48 208h112v16h-112zm0 0" data-original="#000000" class="active-path" data-old_color="#000000" fill="#FFFFFF"/><path d="m176 208h128v16h-128zm0 0" data-original="#000000" class="active-path" data-old_color="#000000" fill="#FFFFFF"/><path d="m48 240h160v16h-160zm0 0" data-original="#000000" class="active-path" data-old_color="#000000" fill="#FFFFFF"/><path d="m224 240h80v16h-80zm0 0" data-original="#000000" class="active-path" data-old_color="#000000" fill="#FFFFFF"/><path d="m48 272h256v16h-256zm0 0" data-original="#000000" class="active-path" data-old_color="#000000" fill="#FFFFFF"/><path d="m48 304h112v16h-112zm0 0" data-original="#000000" class="active-path" data-old_color="#000000" fill="#FFFFFF"/><path d="m176 304h48v16h-48zm0 0" data-original="#000000" class="active-path" data-old_color="#000000" fill="#FFFFFF"/><path d="m240 304h64v16h-64zm0 0" data-original="#000000" class="active-path" data-old_color="#000000" fill="#FFFFFF"/><path d="m240 352h64v16h-64zm0 0" data-original="#000000" class="active-path" data-old_color="#000000" fill="#FFFFFF"/><path d="m208 144h16v16h-16zm0 0" data-original="#000000" class="active-path" data-old_color="#000000" fill="#FFFFFF"/><path d="m240 144h64v16h-64zm0 0" data-original="#000000" class="active-path" data-old_color="#000000" fill="#FFFFFF"/><path d="m208 176h64v16h-64zm0 0" data-original="#000000" class="active-path" data-old_color="#000000" fill="#FFFFFF"/><path d="m288 176h16v16h-16zm0 0" data-original="#000000" class="active-path" data-old_color="#000000" fill="#FFFFFF"/><path d="m144 64h64v16h-64zm0 0" data-original="#000000" class="active-path" data-old_color="#000000" fill="#FFFFFF"/><path d="m144 96h64v16h-64zm0 0" data-original="#000000" class="active-path" data-old_color="#000000" fill="#FFFFFF"/></g> </svg>
