<?xml version="1.0"?>
<svg xmlns="http://www.w3.org/2000/svg" xmlns:xlink="http://www.w3.org/1999/xlink" version="1.1" id="Capa_1" x="0px" y="0px" width="512px" height="512px" viewBox="0 0 121.9 121.9" style="enable-background:new 0 0 121.9 121.9;" xml:space="preserve" class=""><g transform="matrix(1, 0, 0, 1, 0, 0)"><g>
	<path d="M0,18.5v84.9c0,10.199,8.3,18.5,18.5,18.5h84.9c10.199,0,18.5-8.301,18.5-18.5V18.5c0-8.7-6-15.9-14-18V26   c0,3.6-2.9,6.5-6.5,6.5C97.8,32.5,95,29.6,95,26V0H27v26c0,3.6-2.9,6.5-6.5,6.5S14,29.6,14,26V0.6C6,2.6,0,9.9,0,18.5z M20,43h82   c3.3,0,6,2.7,6,6v53c0,3.3-2.7,6-6,6H20c-3.3,0-6-2.7-6-6V49C14,45.7,16.7,43,20,43z" data-original="#000000" class="active-path" data-old_color="#000000" fill="#FFFFFF"/>
	<path d="M92,65h8c1.7,0,3-1.3,3-3v-8c0-1.7-1.3-3-3-3h-8c-1.7,0-3,1.3-3,3v8C89,63.7,90.3,65,92,65z" data-original="#000000" class="active-path" data-old_color="#000000" fill="#FFFFFF"/>
	<path d="M74,65h8c1.7,0,3-1.3,3-3v-8c0-1.7-1.3-3-3-3h-8c-1.7,0-3,1.3-3,3v8C71,63.7,72.3,65,74,65z" data-original="#000000" class="active-path" data-old_color="#000000" fill="#FFFFFF"/>
	<path d="M57,65h8c1.7,0,3-1.3,3-3v-8c0-1.7-1.3-3-3-3h-8c-1.7,0-3,1.3-3,3v8C54,63.7,55.3,65,57,65z" data-original="#000000" class="active-path" data-old_color="#000000" fill="#FFFFFF"/>
	<path d="M22,82h8c1.7,0,3-1.3,3-3v-8c0-1.7-1.3-3-3-3h-8c-1.7,0-3,1.3-3,3v8C19,80.7,20.3,82,22,82z" data-original="#000000" class="active-path" data-old_color="#000000" fill="#FFFFFF"/>
	<path d="M92,82h8c1.7,0,3-1.3,3-3v-8c0-1.7-1.3-3-3-3h-8c-1.7,0-3,1.3-3,3v8C89,80.7,90.3,82,92,82z" data-original="#000000" class="active-path" data-old_color="#000000" fill="#FFFFFF"/>
	<path d="M39,82h8c1.7,0,3-1.3,3-3v-8c0-1.7-1.3-3-3-3h-8c-1.7,0-3,1.3-3,3v8C36,80.7,37.3,82,39,82z" data-original="#000000" class="active-path" data-old_color="#000000" fill="#FFFFFF"/>
	<path d="M74,82h8c1.7,0,3-1.3,3-3v-8c0-1.7-1.3-3-3-3h-8c-1.7,0-3,1.3-3,3v8C71,80.7,72.3,82,74,82z" data-original="#000000" class="active-path" data-old_color="#000000" fill="#FFFFFF"/>
	<path d="M57,82h8c1.7,0,3-1.3,3-3v-8c0-1.7-1.3-3-3-3h-8c-1.7,0-3,1.3-3,3v8C54,80.7,55.3,82,57,82z" data-original="#000000" class="active-path" data-old_color="#000000" fill="#FFFFFF"/>
	<path d="M22,101h8c1.7,0,3-1.3,3-3v-8c0-1.7-1.3-3-3-3h-8c-1.7,0-3,1.3-3,3v8C19,99.7,20.3,101,22,101z" data-original="#000000" class="active-path" data-old_color="#000000" fill="#FFFFFF"/>
	<path d="M39,101h8c1.7,0,3-1.3,3-3v-8c0-1.7-1.3-3-3-3h-8c-1.7,0-3,1.3-3,3v8C36,99.7,37.3,101,39,101z" data-original="#000000" class="active-path" data-old_color="#000000" fill="#FFFFFF"/>
	<path d="M74,101h8c1.7,0,3-1.3,3-3v-8c0-1.7-1.3-3-3-3h-8c-1.7,0-3,1.3-3,3v8C71,99.7,72.3,101,74,101z" data-original="#000000" class="active-path" data-old_color="#000000" fill="#FFFFFF"/>
	<path d="M57,101h8c1.7,0,3-1.3,3-3v-8c0-1.7-1.3-3-3-3h-8c-1.7,0-3,1.3-3,3v8C54,99.7,55.3,101,57,101z" data-original="#000000" class="active-path" data-old_color="#000000" fill="#FFFFFF"/>
</g></g> </svg>
