<?xml version="1.0"?>
<svg xmlns="http://www.w3.org/2000/svg" xmlns:xlink="http://www.w3.org/1999/xlink" version="1.1" id="Capa_1" x="0px" y="0px" viewBox="0 0 529.578 529.578" style="enable-background:new 0 0 529.578 529.578;" xml:space="preserve" width="512px" height="512px" class=""><g><g>
	<g>
		<path d="M266.032,529.578c146.691,0,263.546-119.342,263.546-263.546S410.237,0,266.032,0S0,119.342,0,266.032    S119.342,529.578,266.032,529.578z M266.032,24.863c131.773,0,238.683,106.91,238.683,238.683s-106.91,238.683-238.683,238.683    S27.349,395.319,27.349,263.546S134.259,24.863,266.032,24.863z" data-original="#000000" class="active-path" data-old_color="#000000" fill="#3E4D61"/>
		<path d="M300.84,407.75c2.486,2.486,4.973,4.973,9.945,4.973c2.486,0,4.973,0,7.459-2.486c4.973-4.973,4.973-12.431,0-17.404    L206.361,268.519l111.883-126.8c4.973-4.973,4.973-12.431,0-17.404s-12.431-4.973-17.404,0L183.985,261.06    c-4.973,4.973-4.973,12.431,0,17.404L300.84,407.75z" data-original="#000000" class="active-path" data-old_color="#000000" fill="#3E4D61"/>
	</g>
</g></g> </svg>
